<svg width="1024" height="1024" viewBox="0 0 1024 1024" fill="none" xmlns="http://www.w3.org/2000/svg">
<rect x="30" y="365" width="965" height="294" rx="20" fill="#111111"/>
<path d="M396.56 546V456H418.76C424.68 456 429.4 457.86 432.92 461.58C436.48 465.3 438.26 470.24 438.26 476.4V488.52C438.26 492.68 437.4 496.34 435.68 499.5C434 502.66 431.6 505.06 428.48 506.7L428.06 504.06C431.26 505.3 433.76 507.26 435.56 509.94C437.36 512.62 438.26 515.78 438.26 519.42V546H429.26V519.42C429.26 516.3 428.3 513.78 426.38 511.86C424.5 509.9 421.96 508.92 418.76 508.92H405.56V546H396.56ZM405.56 499.92H418.76C421.96 499.92 424.5 498.88 426.38 496.8C428.3 494.72 429.26 491.96 429.26 488.52V476.4C429.26 472.96 428.3 470.2 426.38 468.12C424.5 466.04 421.96 465 418.76 465H405.56V499.92ZM474.646 547.44C470.566 547.44 466.986 546.56 463.906 544.8C460.826 543.04 458.406 540.58 456.646 537.42C454.886 534.22 454.006 530.5 454.006 526.26V500.52C454.006 496.36 454.886 492.7 456.646 489.54C458.406 486.34 460.826 483.86 463.906 482.1C466.986 480.3 470.566 479.4 474.646 479.4C480.766 479.4 485.706 481.34 489.466 485.22C493.226 489.1 495.106 494.2 495.106 500.52V514.74H460.966V506.34H486.406V500.22C486.406 496.58 485.346 493.66 483.226 491.46C481.146 489.22 478.286 488.1 474.646 488.1C471.006 488.1 468.106 489.22 465.946 491.46C463.786 493.66 462.706 496.58 462.706 500.22V526.56C462.706 530.2 463.786 533.14 465.946 535.38C468.106 537.62 471.006 538.74 474.646 538.74C478.286 538.74 481.146 537.62 483.226 535.38C485.346 533.14 486.406 530.2 486.406 526.56V525.06H495.106V526.26C495.106 532.58 493.226 537.7 489.466 541.62C485.706 545.5 480.766 547.44 474.646 547.44ZM528.553 547.44C524.473 547.44 520.893 546.56 517.813 544.8C514.733 543.04 512.313 540.58 510.553 537.42C508.793 534.22 507.913 530.5 507.913 526.26V500.52C507.913 496.36 508.793 492.7 510.553 489.54C512.313 486.34 514.733 483.86 517.813 482.1C520.893 480.3 524.473 479.4 528.553 479.4C534.673 479.4 539.613 481.34 543.373 485.22C547.133 489.1 549.013 494.2 549.013 500.52V501.72H540.313V500.22C540.313 496.58 539.253 493.66 537.133 491.46C535.053 489.22 532.193 488.1 528.553 488.1C524.913 488.1 522.013 489.22 519.853 491.46C517.693 493.66 516.613 496.58 516.613 500.22V526.56C516.613 530.2 517.693 533.14 519.853 535.38C522.013 537.62 524.913 538.74 528.553 538.74C532.193 538.74 535.053 537.62 537.133 535.38C539.253 533.14 540.313 530.2 540.313 526.56V525.06H549.013V526.26C549.013 532.58 547.133 537.7 543.373 541.62C539.613 545.5 534.673 547.44 528.553 547.44ZM561.981 546V480.9H570.681V546H561.981ZM561.981 473.64V459.6H570.681V473.64H561.981ZM587.762 567.6V480.9H596.462V489.36L595.022 487.38C596.462 484.9 598.402 482.96 600.842 481.56C603.322 480.12 606.282 479.4 609.722 479.4C613.282 479.4 616.482 480.2 619.322 481.8C622.202 483.4 624.482 485.76 626.162 488.88C627.842 491.96 628.682 495.74 628.682 500.22V526.56C628.682 531.08 627.842 534.9 626.162 538.02C624.482 541.14 622.202 543.5 619.322 545.1C616.482 546.66 613.282 547.44 609.722 547.44C606.282 547.44 603.322 546.74 600.842 545.34C598.402 543.94 596.462 541.98 595.022 539.46L596.462 537.54V567.6H587.762ZM608.102 538.74C611.822 538.74 614.722 537.62 616.802 535.38C618.922 533.14 619.982 530.2 619.982 526.56V500.22C619.982 496.58 618.922 493.66 616.802 491.46C614.722 489.22 611.842 488.1 608.162 488.1C604.442 488.1 601.562 489.22 599.522 491.46C597.482 493.66 596.462 496.58 596.462 500.22V526.62C596.462 530.26 597.482 533.2 599.522 535.44C601.562 537.64 604.422 538.74 608.102 538.74ZM662.732 547.44C658.652 547.44 655.072 546.56 651.992 544.8C648.912 543.04 646.492 540.58 644.732 537.42C642.972 534.22 642.092 530.5 642.092 526.26V500.52C642.092 496.36 642.972 492.7 644.732 489.54C646.492 486.34 648.912 483.86 651.992 482.1C655.072 480.3 658.652 479.4 662.732 479.4C668.852 479.4 673.792 481.34 677.552 485.22C681.312 489.1 683.192 494.2 683.192 500.52V514.74H649.052V506.34H674.492V500.22C674.492 496.58 673.432 493.66 671.312 491.46C669.232 489.22 666.372 488.1 662.732 488.1C659.092 488.1 656.192 489.22 654.032 491.46C651.872 493.66 650.792 496.58 650.792 500.22V526.56C650.792 530.2 651.872 533.14 654.032 535.38C656.192 537.62 659.092 538.74 662.732 538.74C666.372 538.74 669.232 537.62 671.312 535.38C673.432 533.14 674.492 530.2 674.492 526.56V525.06H683.192V526.26C683.192 532.58 681.312 537.7 677.552 541.62C673.792 545.5 668.852 547.44 662.732 547.44ZM735.838 546L713.938 498.84L707.758 507.84V492.9L733.498 456H743.278L719.938 490.02L745.558 546H735.838ZM699.958 546V456H708.958V546H699.958ZM756.747 546V480.9H765.447V490.26L763.947 488.46C765.467 485.78 767.487 483.72 770.007 482.28C772.527 480.84 775.447 480.12 778.767 480.12H781.587V488.82H776.967C773.487 488.82 770.687 489.9 768.567 492.06C766.487 494.22 765.447 497.12 765.447 500.76V546H756.747ZM805.494 547.44C799.494 547.44 794.854 545.78 791.574 542.46C788.294 539.14 786.654 534.94 786.654 529.86C786.654 526.7 787.234 524.08 788.394 522C789.554 519.88 791.034 518.16 792.834 516.84C794.674 515.52 796.614 514.46 798.654 513.66C801.094 512.66 803.574 511.88 806.094 511.32C808.654 510.72 811.014 510.1 813.174 509.46C815.334 508.78 817.074 507.86 818.394 506.7C819.714 505.54 820.374 503.9 820.374 501.78V500.22C820.374 496.58 819.274 493.66 817.074 491.46C814.914 489.22 812.034 488.1 808.434 488.1C804.794 488.1 801.914 489.22 799.794 491.46C797.714 493.66 796.674 496.58 796.674 500.22V502.02H787.974V500.52C787.974 494.2 789.854 489.1 793.614 485.22C797.374 481.34 802.314 479.4 808.434 479.4C812.474 479.4 816.034 480.3 819.114 482.1C822.234 483.86 824.674 486.32 826.434 489.48C828.194 492.64 829.074 496.32 829.074 500.52V546H820.374V537L821.814 538.92C820.294 541.64 818.154 543.74 815.394 545.22C812.634 546.7 809.334 547.44 805.494 547.44ZM807.294 539.16C811.374 539.16 814.574 538.02 816.894 535.74C819.214 533.42 820.374 530.12 820.374 525.84V514.32C817.934 515.84 815.214 516.88 812.214 517.44C809.214 517.96 806.354 518.68 803.634 519.6C801.234 520.4 799.254 521.54 797.694 523.02C796.134 524.46 795.354 526.52 795.354 529.2C795.354 532.12 796.394 534.52 798.474 536.4C800.554 538.24 803.494 539.16 807.294 539.16ZM849.306 546V489.12H837.246V480.9H849.306V476.58C849.306 472.3 850.146 468.52 851.826 465.24C853.546 461.96 855.946 459.4 859.026 457.56C862.146 455.72 865.786 454.8 869.946 454.8H874.506V463.5H869.946C866.306 463.5 863.406 464.7 861.246 467.1C859.086 469.5 858.006 472.66 858.006 476.58V480.9H874.506V489.12H858.006V546H849.306ZM908.081 546.72C901.881 546.72 896.901 544.76 893.141 540.84C889.421 536.88 887.561 531.58 887.561 524.94V489H875.861V480.78H887.561V464.4H896.261V480.78H912.461V489H896.261V524.94C896.261 528.9 897.341 532.08 899.501 534.48C901.661 536.84 904.521 538.02 908.081 538.02H912.461V546.72H908.081ZM940.904 547.44C934.704 547.44 929.724 545.66 925.964 542.1C922.244 538.5 920.384 533.76 920.384 527.88V525.78H929.084V528.24C929.084 531.4 930.144 533.94 932.264 535.86C934.424 537.78 937.264 538.74 940.784 538.74C944.184 538.74 946.884 537.78 948.884 535.86C950.884 533.94 951.884 531.16 951.884 527.52C951.884 525.16 951.424 523.36 950.504 522.12C949.624 520.84 948.344 519.88 946.664 519.24C944.984 518.6 942.944 518.04 940.544 517.56C936.584 516.72 933.084 515.8 930.044 514.8C927.004 513.76 924.624 512.12 922.904 509.88C921.224 507.64 920.384 504.3 920.384 499.86C920.384 493.22 922.204 488.16 925.844 484.68C929.524 481.16 934.344 479.4 940.304 479.4C946.504 479.4 951.424 481.2 955.064 484.8C958.744 488.36 960.584 493.06 960.584 498.9V500.94H951.884V498.6C951.884 495.4 950.844 492.86 948.764 490.98C946.724 489.06 943.944 488.1 940.424 488.1C936.984 488.1 934.224 489.08 932.144 491.04C930.104 492.96 929.084 495.74 929.084 499.38C929.084 501.74 929.524 503.56 930.404 504.84C931.324 506.08 932.644 507 934.364 507.6C936.084 508.2 938.144 508.76 940.544 509.28C944.464 510.08 947.924 511 950.924 512.04C953.924 513.08 956.284 514.74 958.004 517.02C959.724 519.3 960.584 522.68 960.584 527.16C960.584 533.68 958.784 538.7 955.184 542.22C951.624 545.7 946.864 547.44 940.904 547.44Z" fill="white"/>
<g clip-path="url(#clip0_8_159)">
<path d="M258.794 465.591C256.735 467.164 256.341 470.109 257.914 472.167C266.719 483.691 271.372 497.466 271.372 512C271.372 548.216 241.908 577.681 205.692 577.681C169.475 577.681 140.011 548.216 140.011 512C140.011 475.783 169.475 446.319 205.692 446.319C220.226 446.319 234 450.972 245.525 459.778C247.583 461.351 250.528 460.957 252.101 458.898C253.674 456.839 253.28 453.895 251.221 452.322C238.047 442.256 222.303 436.936 205.692 436.936C164.301 436.936 130.628 470.61 130.628 512C130.628 553.39 164.301 587.064 205.692 587.064C247.082 587.064 280.755 553.39 280.755 512C280.755 495.389 275.435 479.645 265.37 466.471C263.797 464.413 260.853 464.018 258.794 465.591Z" fill="white"/>
<path d="M205.691 411.915C150.505 411.915 105.606 456.812 105.606 512C105.606 567.187 150.505 612.085 205.691 612.085C260.879 612.085 305.777 567.187 305.777 512C305.777 456.812 260.879 411.915 205.691 411.915ZM205.691 602.702C155.678 602.702 114.989 562.013 114.989 512C114.989 461.987 155.678 421.298 205.691 421.298C255.705 421.298 296.394 461.987 296.394 512C296.394 562.013 255.705 602.702 205.691 602.702Z" fill="white"/>
<path d="M96.2234 411.915C93.6325 411.915 91.5319 414.015 91.5319 416.606V455.702H82.1489V416.606C82.1489 414.015 80.0484 411.915 77.4574 411.915C74.8665 411.915 72.766 414.015 72.766 416.606V455.702H63.383V416.606C63.383 414.015 61.2824 411.915 58.6915 411.915C56.1005 411.915 54 414.015 54 416.606V472.904C54 484.233 62.0719 493.71 72.766 495.889V607.394C72.766 609.985 74.8665 612.085 77.4574 612.085C80.0484 612.085 82.1489 609.985 82.1489 607.394V495.889C92.843 493.71 100.915 484.233 100.915 472.904V416.606C100.915 414.015 98.8144 411.915 96.2234 411.915ZM77.4574 486.979C69.6965 486.979 63.383 480.665 63.383 472.904V465.085H91.5319V472.904C91.5319 480.665 85.2184 486.979 77.4574 486.979Z" fill="white"/>
<path d="M343.309 411.915C330.374 411.915 319.851 422.437 319.851 435.372V521.383C319.851 523.974 321.951 526.074 324.543 526.074H338.617V607.394C338.617 609.985 340.717 612.085 343.309 612.085C345.9 612.085 348 609.985 348 607.394V416.606C348 414.015 345.9 411.915 343.309 411.915ZM338.617 516.691H329.234V435.372C329.234 429.256 333.156 424.038 338.617 422.102V516.691Z" fill="white"/>
</g>
<defs>
<clipPath id="clip0_8_159">
<rect width="294" height="294" fill="white" transform="translate(54 365)"/>
</clipPath>
</defs>
</svg>
